# xmcd CD database file
#
# Track frame offsets:
#	150
#	41580
#	58760
#	78458
#	103395
#	154776
#
# Disc length: 2717 seconds
#
# Revision: 0
# Processed by: cddbd v1.5.1PL2 Copyright (c) Steve Scherf et al.
# Submitted via: CDex 1.51
#
DISCID=4b0a9b06
DTITLE=JOKI FREUND SEXTET - YOGI JAZZ
DYEAR=1963
DGENRE=Jazz
TTITLE0=Caravan
TTITLE1=Aisha
TTITLE2=The Caribean Ringo
TTITLE3=Killer Joe
TTITLE4=HL 20
TTITLE5=Yogiana
EXTD=YEAR: 1963
EXTT0=
EXTT1=
EXTT2=
EXTT3=
EXTT4=
EXTT5=
PLAYORDER=
